<svg width="33" height="33" viewBox="0 0 33 33" fill="none" xmlns="http://www.w3.org/2000/svg">
<circle cx="16.5" cy="16.5" r="16.5" fill="#D9D9D9"/>
<path d="M24.5074 23.9999C22.8785 23.9999 21.4992 23.6847 20.3695 23.0541C19.2397 22.4105 18.3925 21.5632 17.8276 20.5123C17.2759 19.4482 17 18.2922 17 17.0443C17 15.8095 17.289 14.6666 17.867 13.6157C18.4581 12.5648 19.3317 11.7241 20.4877 11.0935C21.6437 10.463 23.0361 10.1477 24.665 10.1477C26.1889 10.1477 27.5288 10.4433 28.6848 11.0344L27.9754 13.5172C27.4893 13.2676 26.9836 13.0705 26.4581 12.926C25.9327 12.7684 25.335 12.6896 24.665 12.6896C23.8112 12.6896 23.069 12.8866 22.4384 13.2807C21.821 13.6617 21.3481 14.1871 21.0197 14.8571C20.7044 15.5139 20.5468 16.2495 20.5468 17.064C20.5468 18.3513 20.8884 19.4088 21.5714 20.2364C22.2545 21.0508 23.2332 21.4581 24.5074 21.4581C25.5977 21.4581 26.7734 21.1888 28.0345 20.6502L28.7045 23.0738C28.1659 23.3497 27.5222 23.573 26.7734 23.7438C26.0246 23.9146 25.2693 23.9999 24.5074 23.9999Z" fill="#3470FF"/>
<path d="M9.43843 18.8374H7.5468V23.7635H4V10.3645H9.35962C11.2775 10.3645 12.6765 10.6929 13.5567 11.3497C14.4368 11.9934 14.8769 13.0115 14.8769 14.4039C14.8769 16.2167 14.2135 17.4318 12.8867 18.0492L16.6503 23.7635H12.5517L9.43843 18.8374ZM7.5468 16.3744H9.35962C10.0558 16.3744 10.555 16.2299 10.8572 15.9409C11.1724 15.6519 11.3301 15.2052 11.3301 14.601C11.3301 13.9704 11.179 13.5172 10.8769 13.2414C10.5747 12.9655 10.069 12.8276 9.35962 12.8276H7.5468V16.3744Z" fill="#101828"/>
</svg>
